<?xml version="1.0" encoding="UTF-8" standalone="no"?><!DOCTYPE svg PUBLIC "-//W3C//DTD SVG 1.1//EN" "http://www.w3.org/Graphics/SVG/1.1/DTD/svg11.dtd"><svg width="100%" height="100%" viewBox="0 0 2364 2085" version="1.1" xmlns="http://www.w3.org/2000/svg" xmlns:xlink="http://www.w3.org/1999/xlink" xml:space="preserve" xmlns:serif="http://www.serif.com/" style="fill-rule:evenodd;clip-rule:evenodd;stroke-linecap:round;stroke-linejoin:round;"><g><path d="M1818.694,0l123.126,0l178.769,341.818l-134.255,0l-103.355,-216.753l-56.596,117.262l84.591,0.022l46.2,99.469l-313.496,0l175.017,-341.818Z" style="fill:#0075be;"/><path d="M1670.012,699.237l-130.631,0c-25.228,0 -37.842,0 -47.477,3.83c-8.476,3.37 -15.367,8.743 -19.686,15.356c-4.909,7.516 -4.909,17.355 -4.909,37.037l0,295.171m608.109,-351.394l130.631,0c25.23,0 37.842,0 47.478,3.83c8.477,3.37 15.365,8.743 19.685,15.356c4.91,7.516 4.91,17.355 4.91,37.037l0,295.171m-202.703,0l0,-520.063c0,-39.36 0,-59.04 -9.82,-74.073c-8.635,-13.224 -22.419,-23.975 -39.369,-30.713c-19.27,-7.66 -44.5,-7.66 -94.955,-7.66l-117.117,0c-50.455,0 -75.683,0 -94.954,7.66c-16.952,6.738 -30.734,17.489 -39.371,30.713c-9.819,15.033 -9.819,34.714 -9.819,74.073l0,520.063m653.154,0l-900.902,0m405.406,-491.951l90.09,0m-90.09,140.558l90.09,0m-90.09,140.558l90.09,0" style="fill:none;fill-rule:nonzero;stroke:#000;stroke-width:80.79px;"/><path d="M65.823,1827.179l217.553,256.472l217.554,-256.472c42.022,-49.538 64.916,-111.092 64.916,-174.534l0,-12.994c0,-147.129 -126.467,-266.4 -282.471,-266.4c-156.004,0 -282.471,119.271 -282.471,266.4l0,12.994c0,63.442 22.894,124.996 64.917,174.534Zm217.553,-98.728c52.001,0 94.157,-39.757 94.157,-88.8c0,-49.043 -42.155,-88.8 -94.157,-88.8c-52.001,0 -94.157,39.757 -94.157,88.8c0,49.043 42.155,88.8 94.157,88.8Z" style="stroke:#000;stroke-width:1.81px;stroke-linecap:butt;stroke-miterlimit:2;"/><path d="M307.4,2034.651l871.445,0" style="fill:none;stroke:#000;stroke-width:93.33px;stroke-miterlimit:1.5;"/><path d="M1178.845,1422.251l703.288,6.782" style="fill:none;stroke:#000;stroke-width:93.33px;stroke-miterlimit:1.5;"/><path d="M1882.134,1429.032l0,-349.965" style="fill:none;stroke:#000;stroke-width:93.33px;stroke-miterlimit:1.5;"/><path d="M1178.845,1422.251l0,612.4" style="fill:none;stroke:#000;stroke-width:93.33px;stroke-miterlimit:1.5;"/></g></svg>